<svg width="26" height="26" viewBox="0 0 26 26" fill="none" xmlns="http://www.w3.org/2000/svg">
<g clip-path="url(#clip0_1_16)">
<path d="M25.7441 20.2522L19.2441 5.62719C19.1962 5.51958 19.1181 5.42816 19.0193 5.36399C18.9206 5.29982 18.8053 5.26565 18.6875 5.26562H7.3125C7.19579 5.2658 7.08158 5.29949 6.98346 5.36268C6.88534 5.42588 6.80743 5.51592 6.75899 5.62211V5.62719V5.63633L0.255942 20.2522C0.214647 20.345 0.197189 20.4466 0.205156 20.5478C0.213123 20.649 0.246262 20.7467 0.30156 20.8318C0.356859 20.917 0.432564 20.987 0.521797 21.0355C0.611029 21.0839 0.710959 21.1094 0.812504 21.1094H25.1875C25.289 21.1094 25.389 21.0839 25.4782 21.0355C25.5674 20.987 25.6432 20.917 25.6984 20.8318C25.7537 20.7467 25.7869 20.649 25.7949 20.5478C25.8028 20.4466 25.7854 20.345 25.7441 20.2522ZM6.70313 8.74617V19.8906H1.74993L6.70313 8.74617ZM7.92188 19.8906V8.74617L12.8751 19.8906H7.92188ZM14.2086 19.8906L8.24993 6.48438H18.2914L24.2501 19.8906H14.2086Z" fill="white" fill-opacity="0.9"/>
</g>
<defs>
<clipPath id="clip0_1_16">
<rect width="26" height="26" fill="white"/>
</clipPath>
</defs>
</svg>
