<svg width="9" height="15" viewBox="0 0 9 15" fill="none" xmlns="http://www.w3.org/2000/svg">
<path d="M5 5.83334H8.75L8.33333 7.50001H5V15H3.33333V7.50001H0V5.83334H3.33333V4.27315C3.33333 2.78729 3.48808 2.24848 3.77858 1.70527C4.06908 1.16206 4.49542 0.735744 5.03858 0.445235C5.58183 0.154719 6.12058 1.0252e-05 7.6065 1.0252e-05C8.0415 1.0252e-05 8.42267 0.041677 8.75 0.12501V1.66668H7.6065C6.50342 1.66668 6.1675 1.73154 5.82458 1.91492C5.57183 2.0501 5.38342 2.2385 5.24825 2.49127C5.06483 2.83414 5 3.17007 5 4.27315V5.83334Z" fill="white"/>
</svg>
