<svg width="26" height="26" viewBox="0 0 26 26" fill="none" xmlns="http://www.w3.org/2000/svg">
<path d="M24.375 21.3281H22.5469V13.3219L23.1319 13.9069C23.2465 14.0196 23.4011 14.0824 23.5618 14.0817C23.7226 14.0809 23.8765 14.0167 23.9901 13.903C24.1038 13.7892 24.1678 13.6352 24.1684 13.4744C24.1689 13.3137 24.1059 13.1592 23.9931 13.0447L14.0055 3.056C13.8734 2.92396 13.7167 2.81921 13.5442 2.74774C13.3716 2.67628 13.1867 2.6395 13 2.6395C12.8133 2.6395 12.6284 2.67628 12.4558 2.74774C12.2833 2.81921 12.1266 2.92396 11.9945 3.056L2.00688 13.0447C1.89406 13.1592 1.83107 13.3137 1.83163 13.4744C1.83219 13.6352 1.89625 13.7892 2.00985 13.903C2.12346 14.0167 2.27741 14.0809 2.43817 14.0817C2.59893 14.0824 2.75347 14.0196 2.86812 13.9069L3.45312 13.3219V21.3281H1.625C1.46338 21.3281 1.30839 21.3923 1.19411 21.5066C1.07983 21.6209 1.01562 21.7759 1.01562 21.9375C1.01562 22.0991 1.07983 22.2541 1.19411 22.3684C1.30839 22.4827 1.46338 22.5469 1.625 22.5469H24.375C24.5366 22.5469 24.6916 22.4827 24.8059 22.3684C24.9202 22.2541 24.9844 22.0991 24.9844 21.9375C24.9844 21.7759 24.9202 21.6209 24.8059 21.5066C24.6916 21.3923 24.5366 21.3281 24.375 21.3281ZM4.67188 12.1032L12.8558 3.91827C12.8747 3.89923 12.8971 3.88412 12.9219 3.87381C12.9466 3.8635 12.9732 3.85819 13 3.85819C13.0268 3.85819 13.0534 3.8635 13.0781 3.87381C13.1029 3.88412 13.1253 3.89923 13.1442 3.91827L21.3281 12.1032V21.3281H16.0469V15.4375C16.0469 15.2759 15.9827 15.1209 15.8684 15.0066C15.7541 14.8923 15.5991 14.8281 15.4375 14.8281H10.5625C10.4009 14.8281 10.2459 14.8923 10.1316 15.0066C10.0173 15.1209 9.95312 15.2759 9.95312 15.4375V21.3281H4.67188V12.1032ZM14.8281 21.3281H11.1719V16.0469H14.8281V21.3281Z" fill="white" fill-opacity="0.9"/>
</svg>
