<svg width="20" height="20" viewBox="0 0 20 20" fill="none" xmlns="http://www.w3.org/2000/svg">
<path d="M10.0008 7.50033C8.61967 7.50033 7.50081 8.61958 7.50081 10.0003C7.50081 11.3814 8.62008 12.5003 10.0008 12.5003C11.3819 12.5003 12.5008 11.3811 12.5008 10.0003C12.5008 8.61924 11.3816 7.50033 10.0008 7.50033ZM10.0008 5.83366C12.3012 5.83366 14.1675 7.69791 14.1675 10.0003C14.1675 12.3007 12.3032 14.167 10.0008 14.167C7.70042 14.167 5.83415 12.3027 5.83415 10.0003C5.83415 7.69993 7.6984 5.83366 10.0008 5.83366ZM15.4175 5.62462C15.4175 6.19971 14.9502 6.6663 14.3758 6.6663C13.8007 6.6663 13.3342 6.19899 13.3342 5.62462C13.3342 5.05024 13.8014 4.58366 14.3758 4.58366C14.9494 4.58293 15.4175 5.05024 15.4175 5.62462ZM10.0008 3.33366C7.93875 3.33366 7.60265 3.33912 6.64356 3.38183C5.99012 3.4125 5.55211 3.50038 5.14513 3.65838C4.78346 3.79865 4.52257 3.96614 4.2446 4.24412C3.96556 4.52316 3.79836 4.78335 3.65866 5.14518C3.5003 5.55309 3.41244 5.99042 3.38231 6.64295C3.33919 7.56299 3.33415 7.88453 3.33415 10.0003C3.33415 12.0624 3.33961 12.3985 3.38231 13.3575C3.413 14.0107 3.501 14.4493 3.65861 14.8553C3.79925 15.2175 3.96708 15.479 4.24371 15.7557C4.52386 16.0354 4.78482 16.2032 5.14322 16.3415C5.55516 16.5007 5.9929 16.5887 6.64343 16.6188C7.56348 16.6619 7.88502 16.667 10.0008 16.667C12.0629 16.667 12.399 16.6615 13.358 16.6188C14.0097 16.5882 14.4487 16.5 14.8558 16.3425C15.217 16.2022 15.4793 16.0338 15.7562 15.7574C16.0363 15.4768 16.2037 15.2165 16.3422 14.8572C16.5011 14.4468 16.5892 14.0085 16.6193 13.3577C16.6624 12.4377 16.6675 12.1161 16.6675 10.0003C16.6675 7.93826 16.662 7.60217 16.6193 6.64313C16.5887 5.99121 16.5004 5.55157 16.3427 5.14464C16.2028 4.78398 16.0347 4.52228 15.757 4.24412C15.4775 3.96462 15.218 3.79777 14.8559 3.65818C14.4483 3.49994 14.0103 3.41196 13.3582 3.38183C12.4382 3.3387 12.1166 3.33366 10.0008 3.33366ZM10.0008 1.66699C12.2647 1.66699 12.5473 1.67533 13.4362 1.71699C14.323 1.75797 14.9279 1.89824 15.4592 2.10449C16.0084 2.3163 16.4723 2.60241 16.9355 3.0656C17.398 3.5288 17.6842 3.99408 17.8967 4.54199C18.1022 5.07255 18.2425 5.6781 18.2842 6.56491C18.3237 7.4538 18.3342 7.73643 18.3342 10.0003C18.3342 12.2642 18.3258 12.5468 18.2842 13.4357C18.2432 14.3226 18.1022 14.9274 17.8967 15.4587C17.6848 16.008 17.398 16.4718 16.9355 16.9351C16.4723 17.3976 16.0063 17.6837 15.4592 17.8962C14.9279 18.1017 14.323 18.242 13.4362 18.2837C12.5473 18.3232 12.2647 18.3337 10.0008 18.3337C7.73692 18.3337 7.45428 18.3253 6.5654 18.2837C5.67859 18.2427 5.07442 18.1017 4.54248 17.8962C3.99386 17.6843 3.52928 17.3976 3.06609 16.9351C2.6029 16.4718 2.31748 16.0059 2.10498 15.4587C1.89873 14.9274 1.75915 14.3226 1.71748 13.4357C1.6779 12.5468 1.66748 12.2642 1.66748 10.0003C1.66748 7.73643 1.67581 7.4538 1.71748 6.56491C1.75845 5.67741 1.89873 5.07324 2.10498 4.54199C2.31678 3.99338 2.6029 3.5288 3.06609 3.0656C3.52928 2.60241 3.99456 2.31699 4.54248 2.10449C5.07373 1.89824 5.6779 1.75866 6.5654 1.71699C7.45428 1.67741 7.73692 1.66699 10.0008 1.66699Z" fill="white"/>
</svg>
