<svg width="20" height="20" viewBox="0 0 20 20" fill="none" xmlns="http://www.w3.org/2000/svg">
<path d="M12.7917 4.62467C11.4736 4.62467 10.399 5.68137 10.3755 6.99678L10.3521 8.30932C10.3472 8.58538 10.1193 8.80522 9.84325 8.8003C9.82358 8.79997 9.804 8.79847 9.78458 8.7958L8.48391 8.61847C6.77266 8.38505 5.13252 7.59743 3.5591 6.28639C3.06079 9.04447 4.0335 10.9556 6.37801 12.4296L7.83384 13.3448C8.06762 13.4918 8.138 13.8005 7.99102 14.0342C7.95734 14.0878 7.9138 14.1346 7.8627 14.1719L6.53631 15.141C7.32494 15.1905 8.07465 15.1559 8.696 15.0319C12.6273 14.2474 15.2416 11.2888 15.2416 6.40887C15.2416 6.01047 14.398 4.62467 12.7917 4.62467ZM8.70908 6.96705C8.74875 4.74617 10.5614 2.95801 12.7917 2.95801C13.9278 2.95801 14.9556 3.42199 15.6958 4.1708C16.2887 4.16634 16.793 4.31622 17.9197 3.63269C17.6412 4.99967 17.503 5.59297 16.9082 6.40887C16.9082 12.7768 12.994 15.8737 9.02216 16.6663C6.29908 17.2098 2.33888 16.3176 1.20459 15.1319C1.78245 15.0875 4.1329 14.8346 5.49096 13.8406C4.34178 13.0819 -0.232028 10.3897 2.77326 3.15498C4.18449 4.80219 5.61514 5.92342 7.06522 6.51868C8.02973 6.91462 8.26665 6.90672 8.70908 6.96705Z" fill="white"/>
</svg>
